<svg width="16" height="17" viewBox="0 0 16 17" fill="none" xmlns="http://www.w3.org/2000/svg">
<path fill-rule="evenodd" clip-rule="evenodd" d="M8 14.5C8.78793 14.5 9.56815 14.3448 10.2961 14.0433C11.0241 13.7417 11.6855 13.2998 12.2426 12.7426C12.7998 12.1855 13.2417 11.5241 13.5433 10.7961C13.8448 10.0681 14 9.28793 14 8.5C14 7.71207 13.8448 6.93185 13.5433 6.2039C13.2417 5.47595 12.7998 4.81451 12.2426 4.25736C11.6855 3.70021 11.0241 3.25825 10.2961 2.95672C9.56815 2.65519 8.78793 2.5 8 2.5C6.4087 2.5 4.88258 3.13214 3.75736 4.25736C2.63214 5.38258 2 6.9087 2 8.5C2 10.0913 2.63214 11.6174 3.75736 12.7426C4.88258 13.8679 6.4087 14.5 8 14.5ZM7.84533 10.9267L11.1787 6.92667L10.1547 6.07333L7.288 9.51267L5.80467 8.02867L4.862 8.97133L6.862 10.9713L7.378 11.4873L7.84533 10.9267Z" fill="#28A745"/>
</svg>
