<svg width="12" height="10" viewBox="0 0 12 10" fill="none" xmlns="http://www.w3.org/2000/svg">
<path d="M1.07733 9.66683C0.770222 9.66683 0.514 9.56416 0.308667 9.35883C0.103333 9.1535 0.000444444 8.89705 0 8.5895V1.41083C0 1.10372 0.102889 0.847496 0.308667 0.642163C0.514445 0.436829 0.770444 0.333941 1.07667 0.333496H10.9233C11.23 0.333496 11.486 0.436385 11.6913 0.642163C11.8967 0.84794 11.9996 1.10416 12 1.41083V8.59016C12 8.89683 11.8971 9.15305 11.6913 9.35883C11.4856 9.56461 11.2296 9.66727 10.9233 9.66683H1.07733ZM6 5.0775L0.666667 1.59016V8.59016C0.666667 8.70972 0.705111 8.80794 0.782 8.88483C0.858889 8.96172 0.957333 9.00016 1.07733 9.00016H10.9233C11.0429 9.00016 11.1411 8.96172 11.218 8.88483C11.2949 8.80794 11.3333 8.7095 11.3333 8.5895V1.5895L6 5.0775ZM6 4.3335L11.128 1.00016H0.872L6 4.3335ZM0.666667 1.59016V1.00016V8.59016C0.666667 8.70972 0.705111 8.80794 0.782 8.88483C0.858889 8.96172 0.957333 9.00016 1.07733 9.00016H0.666667V1.59016Z" fill="black" style="fill:black;fill-opacity:1;"/>
</svg>
