<svg width="12" height="12" viewBox="0 0 12 12" fill="none" xmlns="http://www.w3.org/2000/svg">
<path d="M10.62 11.3332C9.4964 11.3332 8.3444 11.0518 7.16396 10.4892C5.98352 9.9265 4.88685 9.1365 3.87396 8.11917C2.86107 7.10184 2.07329 6.00517 1.51063 4.82917C0.947959 3.65317 0.666626 2.50339 0.666626 1.37984C0.666626 1.17628 0.733293 1.00673 0.866626 0.871171C0.999959 0.735615 1.16663 0.667393 1.36663 0.666504H3.01529C3.19663 0.666504 3.35485 0.723615 3.48996 0.837837C3.62507 0.952059 3.7164 1.0985 3.76396 1.27717L4.09463 2.8665C4.12574 3.05317 4.12018 3.21606 4.07796 3.35517C4.03574 3.49428 3.96174 3.60828 3.85596 3.69717L2.39329 5.06117C2.66707 5.55762 2.96952 6.01895 3.30063 6.44517C3.63174 6.87139 3.98507 7.27517 4.36063 7.6565C4.74729 8.04317 5.16374 8.40317 5.60996 8.7365C6.05618 9.06939 6.54596 9.38361 7.07929 9.67917L8.50529 8.22784C8.61374 8.11095 8.73574 8.03384 8.87129 7.9965C9.0064 7.95962 9.15618 7.95228 9.32063 7.9745L10.7226 8.26117C10.904 8.30562 11.0511 8.39695 11.164 8.53517C11.2768 8.67339 11.3333 8.83161 11.3333 9.00984V10.6332C11.3333 10.8332 11.2653 10.9998 11.1293 11.1332C10.9933 11.2665 10.8231 11.3332 10.62 11.3332ZM2.07996 4.43584L3.35996 3.25917C3.40218 3.22495 3.42974 3.17784 3.44263 3.11784C3.45596 3.05784 3.45374 3.00228 3.43596 2.95117L3.14063 1.53784C3.12329 1.46984 3.09329 1.41873 3.05063 1.3845C3.00796 1.35028 2.95263 1.33317 2.88463 1.33317H1.51663C1.46551 1.33317 1.42285 1.35028 1.38863 1.3845C1.3544 1.41873 1.33729 1.46139 1.33729 1.5125C1.35018 1.96806 1.42151 2.44361 1.55129 2.93917C1.68107 3.43473 1.85685 3.93362 2.07996 4.43584ZM7.71396 9.99184C8.16463 10.2149 8.64463 10.3801 9.15396 10.4872C9.66418 10.5938 10.1086 10.6509 10.4873 10.6585C10.5384 10.6585 10.5811 10.6414 10.6153 10.6072C10.6495 10.5729 10.6666 10.5305 10.6666 10.4798V9.14117C10.6666 9.07317 10.6495 9.01762 10.6153 8.9745C10.5811 8.93184 10.53 8.90206 10.462 8.88517L9.22863 8.6325C9.17707 8.61517 9.13196 8.61295 9.09329 8.62584C9.05507 8.63917 9.01463 8.66695 8.97196 8.70917L7.71396 9.99184Z" fill="black" style="fill:black;fill-opacity:1;"/>
</svg>
